<svg version="1" xmlns="http://www.w3.org/2000/svg" width="346.667" height="346.667" viewBox="0 0 260.000000 260.000000"><path d="M0 15c0 12.7.2 15 1.5 15 .8 0 1.5.4 1.5 1 0 .5.9 1 2 1 1.5 0 2.2.9 2.6 3 .8 3.5 4.4 4.4 4.4 1 0-1.3-.7-2-1.9-2-2.4 0-2.8-1.3-2.3-8.3l.4-5.7h14.4c8.9 0 14.4.4 14.4 1 0 .5 2 1 4.5 1 3.8 0 4.5.3 4.5 2s.7 2 4 2c3.8 0 4 .2 4 3 0 2.7.3 3 3 3 1.7 0 3-.5 3-1 0-.6 1.1-1 2.5-1s2.5.4 2.5 1c0 .5 2.3 1 5 1 2.8 0 5 .4 5 1 0 .5 1.6 1 3.5 1 2.8 0 3.5.4 3.5 2s-.7 2-3.5 2c-3.2 0-3.5.2-3.5 3 0 2 .5 3 1.5 3 .8 0 1.5-.5 1.5-1 0-.6.9-1 2-1 1.3 0 2-.7 2-2 0-1.8.7-2 7.5-2 6.7 0 7.5.2 7.5 1.9 0 1.1.6 2.2 1.3 2.5 1 .5 1 .7 0 1.2-.7.3-1.3 1.4-1.3 2.5 0 1-.7 1.9-1.5 1.9s-1.5.9-1.5 2 .7 2 1.5 2 1.5.4 1.5 1c0 .5-.7 1-1.5 1s-1.5-.5-1.5-1c0-.6-.9-1-2-1-1.7 0-2-.7-2-4v-4h-4c-3.3 0-4 .3-4 2 0 1.1.5 2 1 2 .6 0 1 .9 1 2 0 1.6-.7 2-3 2-1.6 0-3 .4-3 1 0 .5-.7 1-1.5 1s-1.5-.5-1.5-1c0-.6-.4-1-1-1-.5 0-1 1.3-1 3 0 2.3-.4 3-2 3-1.1 0-2-.5-2-1 0-.6-.9-1-2-1s-2 .4-2 1c0 1.4-3.7 1.2-4.4-.3-.3-.6-.3-.2 0 1 .5 2.3.4 2.3-8 2.3-7.9 0-8.6.2-8.6 2 0 1.1-.7 2-1.5 2s-1.5-.9-1.5-2 .6-2 1.3-2c.7 0 1.9-.9 2.7-2 1.5-2.1 5-2.8 5-1 0 .5.9 1 2 1s2-.5 2-1c0-.6-.9-1-2-1s-2-.5-2-1c0-.6.9-1 2-1s2-.5 2-1c0-.6 1.3-1 2.9-1 2.6 0 3-.4 3.6-4 .5-3 1.1-4 2.6-4 1 0 1.9-.5 1.9-1 0-.6 1.8-1 4-1h4v-4c0-3.3-.3-4-2-4-1.3 0-2 .7-2 2s-.7 2-2 2-2 .7-2 2-.7 2-2 2c-1.1 0-2 .4-2 1 0 .5-2.5 1-5.5 1s-5.5-.5-5.5-1c0-1.5-2.9-1.2-4.6.4-.8.8-1.4 2.2-1.4 3 0 .9-.7 1.6-1.5 1.6s-1.5-.9-1.5-2c0-1.6-.7-2-3-2s-3 .4-3 2 .7 2 3 2 3 .4 3 2c0 1.3-.7 2-1.9 2-1.1 0-2.2.6-2.5 1.2-.5 1-.7 1-1.2 0-.3-.6-2.3-1.2-4.5-1.2-3.2 0-3.9-.3-3.9-2 0-1.3.7-2 2-2s2-.7 2-2c0-1.6-.7-2-3.5-2-3.3 0-3.5.2-3.5 3.6 0 1.9-.6 4.2-1.4 5-1.7 1.6-10.6 2-10.6.4 0-.6-1.2-1-2.6-1-2 0-2.5.4-2 1.6.3.9.6 1.8.6 2 0 .2.9.4 2 .4s2 .4 2 1c0 .5.9 1 2 1s2 .4 2 1c0 .5-.9 1-2 1s-2-.5-2-1c0-.6-.9-1-1.9-1-1.1 0-2.3-.9-2.6-2-.3-1.1-1.5-2-2.6-2-1 0-1.9-.5-1.9-1 0-.6-.7-1-1.5-1C.2 52 0 64.2 0 156v104h260v-18c0-17.3-.1-18-2-18-1.1 0-2-.5-2-1 0-.6.9-1 2-1 2 0 2-.7 2-111V0H0v15zm7 13c0 1.3-.7 2-2 2s-2-.7-2-2 .7-2 2-2 2 .7 2 2zm179 0c0 1.3.7 2 2 2 1.1 0 2 .4 2 1 0 .5.9 1 2 1 1.6 0 2 .7 2 3s.5 3 1.9 3c1.3 0 2 1 2.5 3.1.8 4.1.8 27-.1 44.2-.5 12.4-.8 13.7-2.5 13.7-1.3 0-1.8.8-1.8 3 0 2.3.4 3 2 3 1.4 0 2-.7 2-2.2 0-1.2.3-1.9.6-1.6.3.3.2 2.2-.1 4.2-.5 2.6-1.2 3.6-2.6 3.6-1.1 0-1.9.4-1.9 1 0 .5.9 1 2 1s2 .4 2 1c0 .5-.9 1-2 1-1.6 0-2 .7-2 3s-.4 3-2 3c-1.7 0-2 .7-2 5s-.3 5-2 5-2 .7-2 4 .3 4 2 4c1.6 0 2 .7 2 3 0 2.7-.3 3-3 3-2.8 0-3 .2-3 4v4h17c10.7 0 17 .4 17 1 0 .5 1.4 1 3 1 1.7 0 3 .4 3 1 0 .5 1.8 1 4 1 3.3 0 4 .3 4 2 0 1.1.7 2 1.5 2 1 0 1.5 1 1.5 3 0 1.6.5 3 1 3 .6 0 1 .9 1 2 0 1.6.7 2 3 2 2.9 0 3 .1 3 5s-.1 5-3 5c-2.3 0-3 .4-3 2 0 1.1-.4 2-1 2-.5 0-1 1.3-1 3 0 2-.5 3-1.5 3-.8 0-1.5.4-1.5 1 0 .5-.9 1-2 1-1.7 0-2 .7-2 4.5s-.3 4.5-2 4.5c-1.6 0-2 .7-2 3 0 1.6-.4 3-1 3-.5 0-1 .9-1 2 0 1.3-.7 2-2 2-1.7 0-2 .7-2 4 0 2.9-.4 4-1.5 4s-1.5 1.2-1.5 4.6c0 4.7-1.6 7.4-4.4 7.4-1.1 0-1.6.9-1.6 3 0 2.3-.4 3-2 3-1.1 0-2 .4-2 1s-4.7 1-12 1-12-.4-12-1-.9-1-2-1c-1.7 0-2-.7-2-4s.3-4 2-4 2-.7 2-5c0-3.8.4-5 1.5-5s1.5-1.2 1.5-5c0-2.8.5-5 1-5 .6 0 1-1.4 1-3 0-2.3.4-3 2-3 1.8 0 2-.7 2-5.5s.2-5.5 2-5.5c1.1 0 2-.5 2-1 0-.6.9-1 1.9-1 1.7 0 2-1 2.6-8.5 1-11.9.5-13.5-4.5-13.5-2.2 0-4-.5-4-1 0-.6-3.2-1-7.5-1s-7.5.4-7.5 1-4.2 1-10.5 1-10.5-.4-10.5-1-2-1-4.5-1c-4.3 0-4.5-.1-4.5-3 0-2 .5-3 1.5-3s1.5-1 1.5-3c0-2.3.4-3 2-3s2-.7 2-3-.4-3-2-3c-1.3 0-2-.7-2-2 0-1.6.7-2 3-2h3v-16h6v-11c0-6.7.4-11 1-11s1-3.7 1-9-.4-9-1-9c-.5 0-1 .4-1 1 0 .5-1.3 1-3 1-1.6 0-3-.5-3-1 0-.6 1.4-1 3-1 2.3 0 3-.4 3-2 0-1.1.5-2 1-2 .6 0 1-1.4 1-3 0-1.7-.4-3-1-3-.5 0-1 .9-1 2 0 1.7-.7 2-4 2s-4-.3-4-2c0-1.3-.7-2-2-2-1.1 0-2-.5-2-1 0-.6 1.4-1 3-1 1.7 0 3 .4 3 1 0 1.5 5.7 1.2 6.4-.3.5-1 .7-1 1.2 0 .3.7 1.2 1.3 2 1.3 1.1 0 1.4-2.7 1.4-14.5 0-12.2-.2-14.5-1.5-14.5-1 0-1.5-1-1.5-3 0-1.7-.4-3-1-3-.5 0-1 .4-1 1 0 .5-1.3 1-3 1-2.3 0-3 .4-3 2 0 1.1-.4 2-1 2-.5 0-1 .9-1 2 0 1.3-.7 2-2 2s-2 .7-2 2c0 1.1-.7 2-1.5 2s-1.5.9-1.5 2 .7 2 1.5 2 1.5.9 1.5 2c0 1.5-.7 2-2.5 2-2 0-2.5.5-2.5 2.5s.5 2.5 2.5 2.5c1.4 0 2.5.4 2.5 1 0 .5-2 1-4.5 1s-4.5.4-4.5 1c0 .5 1.4 1 3 1 1.7 0 3 .4 3 1 0 .5-1.3 1-3 1-1.6 0-3 .4-3 1 0 .5-.9 1-2 1-1.6 0-2 .7-2 3s-.4 3-2 3c-1.7 0-2 .7-2 5s.3 5 2 5c1.3 0 2 .7 2 2 0 1.6-.7 2-3.5 2H128v30h3.5c1.9 0 3.5.4 3.5 1 0 .5-1.6 1-3.5 1H128v13c0 10.9.2 13 1.5 13 1.2 0 1.5 1.3 1.5 6 0 5.3.2 6 2 6 1.6 0 2 .7 2 3s.4 3 2 3c1.8 0 2 .7 2 6s.2 6 2 6 2 .7 2 6.5c0 3.7.4 6.5 1 6.5s1 1.8 1 4c0 2.9.4 4 1.5 4 1 0 1.5 1 1.5 3 0 2.3.4 3 2 3 1.7 0 2 .7 2 5 0 2.7.5 5 1 5 .6 0 1 1.3 1 3 0 2.7.3 3 3 3 2.8 0 3 .2 3 4 0 3.7-.2 4-2.8 4-1.6 0-3.4.8-4.2 2-1.3 1.8-2.6 2-13.2 2-7.2 0-11.8-.4-11.8-1s-.9-1-2-1-2-.5-2-1c0-.6-.9-1-2-1-1.8 0-2-.7-2-6s-.2-6-2-6-2-.7-2-6c0-3.3-.4-6-1-6-.5 0-1-1.4-1-3 0-2-.5-3-1.5-3-1.1 0-1.5-1.1-1.5-4 0-3.3-.3-4-2-4s-2-.7-2-4.5c0-2.5-.4-4.5-1-4.5-.5 0-1-1.8-1-4 0-3.8-.2-4-3-4s-3-.2-3-4c0-2.2-.4-4-1-4-.5 0-1-1.4-1-3 0-2-.5-3-1.5-3-1.1 0-1.5-1.1-1.5-4 0-3.3-.3-4-2-4-1.6 0-2-.7-2-3 0-2.7-.3-3-3-3s-3-.3-3-3c0-1.7-.4-3-1-3-.5 0-1-2.3-1-5 0-4.3-.3-5-2-5-1.6 0-2-.7-2-3 0-2-.5-3-1.5-3s-1.5-1-1.5-3c0-1.7-.4-3-1-3-.5 0-1-1.4-1-3 0-2.3-.4-3-2-3s-2-.7-2-3-.4-3-2-3c-1.1 0-2-.5-2-1 0-.6-.8-1-1.9-1-1.5 0-2-1-2.5-5-.6-4.7-.8-5-3.6-5-2.3 0-3-.4-3-2 0-1.3-.7-2-2-2s-2-.7-2-2-.7-2-2-2c-1.2 0-2-.7-2-1.6 0-2.5-2.6-4.4-5.9-4.4-2.4 0-3.1-.4-3.1-2 0-1.3.7-2 2-2 1.1 0 2-.5 2-1 0-.6-.9-1-2-1-1.2 0-2-.7-2-1.6 0-2.6-2.6-4.4-6.4-4.4-2 0-3.6-.5-3.6-1 0-.6.9-1 2-1s2-.5 2-1c0-.6-.9-1-2-1s-2-.5-2-1c0-.6-2.5-1-5.5-1s-5.5.4-5.5 1c0 .5-.9 1-2 1s-2-.5-2-1c0-.6-1.1-1-2.5-1-2 0-2.5-.5-2.5-2.5S7.5 64 9.5 64s2.5.5 2.5 2.5c0 1.8.5 2.5 2 2.5s2-.7 2-2.5c0-2.1.5-2.5 3-2.5 2.3 0 3-.4 3-2 0-1.7.7-2 4.5-2 2.5 0 4.5-.5 4.5-1 0-.6 1.4-1 3-1 2.3 0 3-.4 3-2 0-1.3.7-2 2-2 1.1 0 2-.5 2-1 0-.6.7-1 1.5-1s1.5-.9 1.5-2c0-1.7.7-2 5-2s5 .3 5 2c0 1.3-.7 2-2 2-1.1 0-2 .4-2 1 0 .5-.9 1-2 1s-2 .4-2 1c0 .5-1.1 1-2.5 1s-2.5.4-2.5 1c0 .5-.7 1-1.6 1-2 0-4.4 2.4-4.4 4.4 0 1.2-1 1.6-4 1.6-3.6 0-4 .2-4 2.5 0 1.8.5 2.5 2 2.5 1.1 0 2 .4 2 1 0 .5 1.4 1 3 1 1.7 0 3-.5 3-1 0-.6 2-1 4.5-1 4.1 0 4.5-.2 4.5-2.5 0-2.4.2-2.5 7.5-2.5s7.5.1 7.5 2.5.3 2.5 5.8 2.5c4.6 0 6 .4 7.2 2 .8 1.1 2 2 2.7 2 .7 0 1.3.4 1.3 1 0 .5.7 1 1.6 1 2 0 4.4 2.4 4.4 4.4 0 1.1.9 1.6 3 1.6 1.7 0 3 .4 3 1 0 .5.9 1 2 1s2-.5 2-1c0-.6.7-1 1.5-1s1.5-.9 1.5-2c0-1.7.7-2 4-2 2.2 0 4-.5 4-1 0-.6 1.4-1 3-1 1.7 0 3-.5 3-1 0-.6-1.3-1-3-1-1.6 0-3-.5-3-1 0-.6 1.4-1 3-1 1.7 0 3-.5 3-1 0-.6.7-1 1.5-1 .9 0 1.5-.9 1.5-2.5 0-2.3-.4-2.5-4.5-2.5s-4.5.2-4.5 2.5c0 2.1-.5 2.5-3 2.5s-3-.4-3-2.5c0-2.3-.4-2.5-4.5-2.5-3.8 0-4.5-.3-4.5-2 0-1.3.7-2 2-2 1.1 0 2-.5 2-1 0-1.7-17.9-1.3-19.6.4-1.6 1.7-1.9 4.6-.4 4.6.6 0 1 1.1 1 2.5 0 2.3.4 2.5 4.5 2.5 2.5 0 4.5.4 4.5 1 0 .5 1.4 1 3 1 1.7 0 3-.5 3-1 0-1.5 6-1.2 7.6.4.8.8 1.4 1.7 1.4 2 0 .3-3.8.6-8.5.6-5 0-8.5-.4-8.5-1s-1.4-1-3.1-1c-3.5 0-5.9-2-5.9-4.9 0-1.8-.6-2.1-4-2.1-3.8 0-4-.2-4-3 0-2.3.4-3 2-3 1.1 0 2 .4 2 1 0 1.8 3.5 1.1 5-1 .8-1.1 2-2 2.7-2 .7 0 1.3-.5 1.3-1 0-.6 1.4-1 3-1 1.7 0 3 .4 3 1s4.5 1 11.5 1c10.8 0 11.5-.1 11.5-2 0-1.1-.4-2-1-2-.5 0-1-1.8-1-4 0-3.8.2-4 3-4 2.3 0 3 .4 3 2 0 1.5.7 2 2.5 2s2.5.5 2.5 2c0 1.7.7 2 4 2 2.2 0 4 .4 4 1 0 .5.9 1 2 1 1.3 0 2 .7 2 2s-.7 2-2 2c-1.1 0-2-.5-2-1 0-.6-.9-1-2-1s-2-.5-2-1c0-.6-.9-1-2-1s-2 .4-2 1c0 .5-1.1 1-2.5 1s-2.5.4-2.5 1 2.8 1 6.5 1 6.5.4 6.5 1c0 .5.9 1 2 1s2-.5 2-1c0-.6.7-1 1.5-1s1.5-.9 1.5-2c0-1.3.7-2 2-2 1.1 0 2-.5 2-1 0-.6.9-1 2-1 1.3 0 2-.7 2-2s.7-2 2-2 2-.7 2-2c0-1.1.5-2 1-2 .6 0 1-1.4 1-3 0-2.8.3-3 3.5-3 2.5 0 3.5-.4 3.5-1.6 0-2.3 2.5-4.4 5.4-4.4 1.4 0 2.6-.5 2.6-1 0-.6 1.1-1 2.5-1 1.8 0 2.5-.5 2.5-2 0-1.9.7-2 10.5-2s10.5.1 10.5 2zM27 53c0 .5 1.8 1 4 1s4 .4 4 1c0 .5-.9 1-2 1s-2 .4-2 1c0 1.6-6 1.2-7.6-.5-1.3-1.2-1.3-1.7-.2-2.9 1.5-1.7 3.8-2.1 3.8-.6zm57 9c0 1.6-.7 2-3 2s-3-.4-3-2 .7-2 3-2 3 .4 3 2zm70 8c0 .5 1.8 1 4 1s4 .4 4 1c0 1.5-7 1.2-8.6-.4-1.6-1.7-1.8-2.6-.4-2.6.6 0 1 .4 1 1zM7 74c0 .5-.9 1-2 1s-2-.5-2-1c0-.6.9-1 2-1s2 .4 2 1zm138 5c0 1.1.7 2 1.5 2s1.5.4 1.5 1c0 .5.9 1 2 1 1.3 0 2 .7 2 2s-.7 2-2 2c-1.6 0-2 .7-2 3 0 2.5-.4 3-2.5 3-1.8 0-2.5.5-2.5 2 0 1.3-.7 2-2 2s-2-.7-2-2 .7-2 2-2 2-.7 2-2c0-1.7-.7-2-4-2-2.2 0-4-.5-4-1 0-1.5 7.7-1.2 8.4.2.5 1 .7 1 1.2 0 .3-.6 1.2-1.2 2-1.2s1.4-.9 1.4-2c0-1.7-.7-2-4.5-2-2.5 0-4.5-.5-4.5-1 0-.6.9-1 2-1 1.3 0 2-.7 2-2 0-1.1.5-2 1-2 .6 0 1 .9 1 2zM16 85c0 1.3-.7 2-2 2s-2-.7-2-2 .7-2 2-2 2 .7 2 2zm25 8c0 3.3-.3 4-2 4s-2-.7-2-4 .3-4 2-4 2 .7 2 4zm172 2c0 1.3-.7 2-2 2s-2-.7-2-2 .7-2 2-2 2 .7 2 2zm-78 5c0 .5-.9 1-2 1s-2-.5-2-1c0-.6.9-1 2-1s2 .4 2 1zm-100 3c0 1.3-.7 2-2 2s-2-.7-2-2 .7-2 2-2 2 .7 2 2zm189 0c0 1.1-.4 2-1 2-.5 0-1-.9-1-2s.5-2 1-2c.6 0 1 .9 1 2zm0 7c0 .5-.4 1-1 1-.5 0-1-.5-1-1 0-.6.5-1 1-1 .6 0 1 .4 1 1zm-189 4c0 .5-.9 1-2 1-1.3 0-2 .7-2 2s-.7 2-2 2-2-.7-2-2 .7-2 2-2c1.1 0 2-.5 2-1 0-.6.9-1 2-1s2 .4 2 1zm104 0c0 .5-.9 1-2 1s-2-.5-2-1c0-.6.9-1 2-1s2 .4 2 1zm66 0c0 .5-1.3 1-3 1-1.6 0-3-.5-3-1 0-.6 1.4-1 3-1 1.7 0 3 .4 3 1zm-51 3c0 1.1-.4 2-1 2-.5 0-1-.9-1-2s.5-2 1-2c.6 0 1 .9 1 2zm64 0c0 1.1-.7 2-1.5 2-1 0-1.5 1-1.5 3 0 1.6-.4 3-1 3-.5 0-1-1.4-1-3 0-1.7.5-3 1-3 .6 0 1-.9 1-2s.7-2 1.5-2 1.5.9 1.5 2zm19 0c0 1.1-.4 2-1 2-.5 0-1-.9-1-2s.5-2 1-2c.6 0 1 .9 1 2zm10 9c0 .5.9 1 2 1s2 .4 2 1c0 .5-1.8 1-4 1-3.3 0-4-.3-4-2 0-1.3.7-2 2-2 1.1 0 2 .4 2 1zm-38 2c0 .5-2.2 1-5 1-2.7 0-5-.5-5-1 0-.6 2.3-1 5-1 2.8 0 5 .4 5 1zm4 5c0 1.3-.7 2-2 2s-2-.7-2-2 .7-2 2-2 2 .7 2 2zm11 5c0 1.6-.4 3-1 3-.5 0-1-1.4-1-3 0-1.7.5-3 1-3 .6 0 1 1.3 1 3zm27.7 7.7c-.3 1-.5.2-.5-1.7s.2-2.7.5-1.8c.2 1 .2 2.6 0 3.5zM247 157c0 1.3-.7 2-2 2s-2-.7-2-2 .7-2 2-2 2 .7 2 2zM37 199c0 .5-.4 1-1 1-.5 0-1-.5-1-1 0-.6.5-1 1-1 .6 0 1 .4 1 1zm206 2c0 .5-1.3 1-3 1-1.6 0-3-.5-3-1 0-.6 1.4-1 3-1 1.7 0 3 .4 3 1zm0 25c0 1.7-.7 2-4 2s-4-.3-4-2 .7-2 4-2 4 .3 4 2zm-178 3c0 .5-.9 1-2 1s-2-.5-2-1c0-.6.9-1 2-1s2 .4 2 1zm4 8c0 .5-.9 1-2 1s-2-.5-2-1c0-.6.9-1 2-1s2 .4 2 1zm38 8c0 .5-.4 1-1 1-.5 0-1-.5-1-1 0-.6.5-1 1-1 .6 0 1 .4 1 1zm-8 3c0 1.1-.4 2-1 2-.5 0-1-.9-1-2s.5-2 1-2c.6 0 1 .9 1 2zm91 7c0 .5-1.3 1-3 1-1.6 0-3-.5-3-1 0-.6 1.4-1 3-1 1.7 0 3 .4 3 1z"/><path d="M111 53c0 .5.7 1 1.5 1s1.5-.5 1.5-1c0-.6-.7-1-1.5-1s-1.5.4-1.5 1zM114 62c0 1.1.5 2 1 2 .6 0 1 1.1 1 2.5s-.4 2.5-1 2.5c-.5 0-1 1.3-1 3 0 2.7.3 3 3 3 2.3 0 3-.4 3-2 0-1.3-.7-2-2-2-1.1 0-2-.5-2-1 0-.6 1.8-1 4-1h4v-9h-5c-4.3 0-5 .3-5 2zM111 76c0 .5-1.3 1-3 1-2.3 0-3 .4-3 2 0 1.7-.7 2-4 2-2.2 0-4 .4-4 1 0 .5-.7 1-1.5 1-1 0-1.5 1-1.5 3s.5 3 1.5 3c1.1 0 1.5 1.1 1.5 4 0 2.2.5 4 1 4 .6 0 1 1.8 1 4 0 3.8.2 4 3 4s3 .2 3 4 .2 4 3 4h3v-10c0-8.2.3-10 1.5-10 1.1 0 1.5-1.2 1.5-5s-.4-5-1.5-5c-.8 0-1.5-.5-1.5-1 0-.6 1.1-1 2.5-1 2.8 0 3.4-2.3 1.1-4.6-1.7-1.6-3.6-1.9-3.6-.4zm0 14v3h-6c-5.3 0-6-.2-6-2 0-1.1-.4-2-1-2-.5 0-1-.5-1-1 0-.6 3-1 7-1h7v3zM22 33c0 .5.5 1 1 1 .6 0 1-.5 1-1 0-.6-.4-1-1-1-.5 0-1 .4-1 1zM31 35c0 2.3.4 3 2 3 1.3 0 2 .7 2 2 0 1.1.5 2 1 2 .6 0 1-.9 1-2s-.4-2-1-2c-.5 0-1-1.4-1-3 0-2.3-.4-3-2-3s-2 .7-2 3zM46 33c0 .5.9 1 2 1s2-.5 2-1c0-.6-.9-1-2-1s-2 .4-2 1zM0 36c0 1.1.7 2 1.5 2S3 37.1 3 36s-.7-2-1.5-2-1.5.9-1.5 2zM41 40c0 1.1.7 2 1.5 2s1.5-.9 1.5-2-.7-2-1.5-2-1.5.9-1.5 2zM54 40c0 1.6.7 2 3 2s3-.4 3-2-.7-2-3-2-3 .4-3 2zM0 43c0 .5.7 1 1.5 1S3 43.5 3 43c0-.6-.7-1-1.5-1S0 42.4 0 43zM3 50c0 1.3.7 2 2 2s2-.7 2-2-.7-2-2-2-2 .7-2 2zM61 51c0 2.8.2 3 4 3s4-.2 4-3-.2-3-4-3-4 .2-4 3z"/></svg>