<svg xmlns="http://www.w3.org/2000/svg" width="60" height="60" viewBox="0 0 60 60"><g><g><path fill="#56ab99" d="M34 45c0-2.713-2.287-5-5-5s-5 2.287-5 5 2.287 5 5 5 5-2.287 5-5m-3.834-34C25.63 11 21.04 12.866 18 16.482l5.309 6.414c1.548-1.866 3.705-3.032 5.806-3.032 2.378 0 3.263.991 3.263 2.274 0 2.916-7.19 3.907-7.19 10.497 0 2.216.664 4.024 1.715 5.365l7.355-1.983c-.442-.466-.83-1.34-.83-2.332C33.428 29.31 42 28.67 42 20.33 42 14.732 37.465 11 30.166 11m16.56-3.74c.521-.742.276-1.724-.547-2.194a67.96 67.96 0 0 0-1.542-.858c-.847-.434-1.924-.167-2.406.596-.482.763-.186 1.734.661 2.168.202.103.966.534 1.4.781.293.167.619.247.942.247.584 0 1.157-.262 1.493-.74M60 30c0-8.261-3.458-16.24-9.488-21.892a1.71 1.71 0 0 0-2.34 2.496C53.593 15.685 56.58 22.574 56.58 30c0 14.656-11.923 26.579-26.579 26.579S3.421 44.656 3.421 30 15.344 3.421 30 3.421c2.921 0 5.791.47 8.53 1.398a1.71 1.71 0 1 0 1.098-3.24A29.95 29.95 0 0 0 30 0C13.458 0 0 13.458 0 30s13.458 30 30 30 30-13.458 30-30"/></g></g></svg>