<svg xmlns="http://www.w3.org/2000/svg" width="495" height="738" viewBox="0 0 495 738"><g><g clip-path="url(#clip-7D687B91-64C5-4E0E-8516-AE37B696629D)" opacity=".04"><path d="M360 640.503C360 582.18 311.054 533 252.997 533S146 582.18 146 640.503 194.94 748 252.997 748 360 698.826 360 640.503M250.922-38C157.398-38 62.731-1.504 0 69.197L109.493 194.64c31.936-36.49 76.419-59.3 119.76-59.3 49.041 0 67.289 19.388 67.289 44.472 0 57.02-148.268 76.407-148.268 205.271 0 43.34 13.683 78.687 35.353 104.918l151.696-38.775c-9.124-9.123-17.111-26.23-17.111-45.613 0-85.53 176.788-98.075 176.788-261.15C495 34.986 401.475-38 250.922-38"/></g></g></svg>