<svg xmlns="http://www.w3.org/2000/svg" width="31" height="30" viewBox="0 0 31 30"><g><g><path fill="#fff" d="M26.49 27.188H3.99a.938.938 0 0 1-.938-.938V12.187h3.75c-.488.703-.653 2.015-.653 2.848 0 5.02 4.094 9.105 9.126 9.105 5.032 0 9.127-4.085 9.127-9.105 0-.833-.119-2.124-.724-2.848h3.75V26.25c0 .517-.42.938-.938.938zm-5.456-12.153a5.76 5.76 0 0 1-5.764 5.755 5.76 5.76 0 0 1-5.764-5.755 5.76 5.76 0 0 1 5.764-5.756 5.76 5.76 0 0 1 5.764 5.756zM22.74 3.75h2.812c.518 0 .938.42.938.937V7.5c0 .517-.42.937-.938.937H22.74a.937.937 0 0 1-.937-.937V4.687c0-.517.42-.937.937-.937zM3.806 0A3.561 3.561 0 0 0 .24 3.558v22.884A3.562 3.562 0 0 0 3.806 30h22.868a3.562 3.562 0 0 0 3.566-3.558V3.558A3.561 3.561 0 0 0 26.674 0z"/></g></g></svg>