<svg xmlns="http://www.w3.org/2000/svg" width="30" height="26" viewBox="0 0 30 26"><g><g><path fill="#fff" d="M29.293 1.217a12.186 12.186 0 0 1-3.912 1.51A6.103 6.103 0 0 0 20.89.76c-3.396 0-6.152 2.793-6.152 6.237 0 .489.053.963.158 1.42-5.115-.26-9.65-2.74-12.687-6.519a6.292 6.292 0 0 0-.833 3.14 6.254 6.254 0 0 0 2.739 5.19 6.097 6.097 0 0 1-2.79-.777v.076c0 3.023 2.122 5.545 4.94 6.115-.516.147-1.06.22-1.622.22-.397 0-.784-.038-1.159-.11.784 2.477 3.055 4.28 5.75 4.329a12.244 12.244 0 0 1-7.645 2.67c-.496 0-.987-.028-1.468-.085a17.279 17.279 0 0 0 9.435 2.8c11.322 0 17.512-9.502 17.512-17.745a20.7 20.7 0 0 0-.016-.808 12.54 12.54 0 0 0 3.069-3.228c-1.102.495-2.29.831-3.534.981a6.236 6.236 0 0 0 2.707-3.45"/></g></g></svg>