<svg xmlns="http://www.w3.org/2000/svg" width="82" height="44" viewBox="0 0 82 44"><g><g opacity=".3"><path fill="none" stroke="#fff" stroke-miterlimit="50" d="M41.248 22.093c0-7.161 1.988-11.652 6.957-11.652 4.969 0 6.956 4.49 6.956 11.652 0 7.16-1.987 11.712-6.956 11.712s-6.957-4.551-6.957-11.712zm-13.913 4.249l2.914-8.944h.555a30.67 30.67 0 0 0-.323 4.472c0 1.508.107 3.008.322 4.472zm-6.607 0H15.41l3.066-8.944h5.381zM71.894 1.613l-8.877 8.789C60.311 4.894 55.387 1 48.06 1c-7.93 0-13.044 4.56-15.58 10.789h-.248l3.422-10.176H28.87l-3.361 10.176h-5.256l3.361-10.176H16.89L13.53 11.789H7.723L5.889 17.55h5.623L8.58 26.624H2.895L1 32.447h5.562L3.262 42.5h6.722l3.3-10.053h5.318L15.24 42.5h6.784l3.3-10.053h5.99l.55-1.747c2.264 7.098 7.561 12.536 16.195 12.536 11.918 0 17.48-10.36 17.48-21.149 0-.642-.021-1.282-.06-1.918l5.009-5.07V42.5H81V1.613z"/></g></g></svg>