<svg xmlns="http://www.w3.org/2000/svg" width="82" height="39" viewBox="0 0 82 39"><g><g opacity=".3"><path fill="none" stroke="#fff" stroke-miterlimit="50" d="M72.57 18.88c3.813.375 8.43 3.329 8.43 8.483 0 6.282-5.906 10.631-14.82 10.631-5.863 0-10.474-1.76-13.436-4.277-2.488 2.626-5.937 4.277-10.402 4.277-7.585 0-12.238-4.763-14.227-10.98l-.484 1.53H22.37L19.47 37.35h-5.96l2.953-8.806h-4.671l-2.9 8.806H2.988l2.899-8.806H1l1.664-5.1h4.994l2.577-7.947h-4.94l1.611-5.047h5.1l2.954-8.913h5.906l-2.953 8.913h4.618l2.953-8.913h5.96l-3.007 8.913h.218C30.883 4.994 35.376 1 42.342 1c4.65 0 8.197 1.78 10.705 4.585C56.057 2.853 60.397 1 66.18 1c9.128 0 14.228 3.92 14.228 9.826 0 4.188-3.597 7.356-7.839 8.054zm-51.758-3.383h-4.617l-2.631 7.937h4.564zm6.461 7.937a26.369 26.369 0 0 1-.296-3.969c0-1.34.099-2.67.297-3.968h-.51l-2.676 7.937zm15.07 6.399c4.294 0 6.013-4.027 6.013-10.363 0-6.335-1.719-10.309-6.014-10.309s-6.013 3.974-6.013 10.31c0 6.335 1.718 10.362 6.013 10.362zm23.462 0c3.973 0 6.014-1.504 6.014-3.49 0-2.04-1.504-3.007-6.39-3.007-1.557 0-4.295 0-4.832.054v-8.215c.698.054 3.49.054 4.832.054 3.705 0 5.799-.913 5.799-2.792 0-2.256-2.577-3.276-6.014-3.276-3.115 0-6.084 1.071-8.538 3.116.685 2.265 1.022 4.714 1.022 7.193 0 2.472-.335 4.918-1.016 7.182 2.578 2.133 6.258 3.18 9.123 3.18z"/></g></g></svg>