<svg xmlns="http://www.w3.org/2000/svg" width="82" height="39" viewBox="0 0 82 39"><g><g opacity=".3"><path fill="none" stroke="#fff" stroke-miterlimit="50" d="M81 29.277v8.049H52.9v-3.76c-2.498 2.7-5.989 4.404-10.53 4.404-7.59 0-12.247-4.76-14.237-10.973l-.484 1.53h-5.265l-2.902 8.799H13.52l2.955-8.8h-4.675l-2.901 8.8h-5.91l2.901-8.8H1l1.665-5.097h4.997l2.58-7.942H5.297l1.612-5.043h5.104l2.955-8.907h5.91l-2.955 8.907h4.621L25.5 1.537h5.964l-3.009 8.907h.218C30.903 4.99 35.4 1 42.37 1c4.667 0 8.224 1.79 10.736 4.608C56.834 2.388 61.803 1 66.225 1 74.66 1 80.73 5.722 80.73 12.912c0 5.473-3.922 10.141-12.84 16.365zM20.707 15.545h-4.64l-2.643 7.87h4.586zm6.656 7.87a24.801 24.801 0 0 1-.31-3.935c0-1.328.103-2.648.31-3.935h-.533l-2.8 7.87zm14.85 6.373c4.328 0 6.06-4.014 6.06-10.33 0-6.315-1.732-10.276-6.06-10.276-4.33 0-6.061 3.96-6.061 10.276s1.731 10.33 6.06 10.33zm15.565-10.273c0 2.832-.435 5.63-1.323 8.162 12.406-9.105 14.848-11.461 14.848-14.728 0-2.476-2.299-3.767-4.918-3.767-3.908 0-6.876 1.472-9.421 3.842.546 2.066.814 4.267.814 6.491z"/></g></g></svg>