<svg xmlns="http://www.w3.org/2000/svg" width="37" height="37" viewBox="0 0 37 37"><g><g transform="matrix(-1 0 0 1 37 0)"><g><path fill="#9b9b9b" d="M2 18.5C2 9.387 9.387 2 18.5 2S35 9.387 35 18.5 27.613 35 18.5 35 2 27.613 2 18.5zm35 0C37 8.283 28.717 0 18.5 0S0 8.283 0 18.5 8.283 37 18.5 37 37 28.717 37 18.5z"/></g><g><path fill="#9b9b9b" d="M16.98 23.906l4.836-4.951a.653.653 0 0 0 0-.91l-4.836-4.95a.309.309 0 0 0-.444 0l-.444.454a.327.327 0 0 0 0 .454l4.17 4.27a.327.327 0 0 1 0 .454l-4.17 4.27a.327.327 0 0 0 0 .454l.444.455a.309.309 0 0 0 .444 0"/></g></g></g></svg>